<?xml version="1.0" encoding="UTF-8"?>
<svg id="Layer_2" data-name="Layer 2" xmlns="http://www.w3.org/2000/svg" width="349" height="349" viewBox="0 0 349 349">
  <defs>
    <style>
      .cls-1 {
        fill: #fafaf9;
      }

      .cls-2 {
        fill: #4a044e;
      }
    </style>
  </defs>
  <g id="Layer_1-2" data-name="Layer 1">
    <g>
      <rect class="cls-2" width="349" height="349"/>
      <path class="cls-1" d="M278.7538,54H50v175.0781c0,17.8466,6.3273,33.1015,18.9854,45.7561,12.5304,12.6581,27.7819,18.9854,45.7561,18.9854h149.7919c8.9863,0,16.6474-3.1007,22.9764-9.3038,6.329-6.455,9.4901-14.1109,9.4901-22.9713v-64.9313c0-8.8569-3.1611-16.4524-9.4901-22.7831-6.329-6.3273-13.9902-9.4919-22.9764-9.4919h-133.6553c-4.431,0-8.2288-1.5805-11.3916-4.7468-3.1645-3.1628-4.7451-7.0244-4.7451-11.5814,0-4.4293,1.5806-8.2253,4.7451-11.3916,3.1628-3.1611,6.9606-4.7451,11.3916-4.7451h147.8757c10.0771,0,18.2462-8.1691,18.2462-18.2462v-41.3811c0-10.0771-8.1691-18.2462-18.2462-18.2462ZM119.4866,217.6882c3.1628-3.1628,6.9606-4.7468,11.3916-4.7468h85.0555c4.4293,0,8.2892,1.584,11.5814,4.7468,3.1628,3.1646,4.7468,6.9623,4.7468,11.3899,0,4.4327-1.584,8.2926-4.7468,11.5814-3.2922,3.0386-7.1521,4.557-11.5814,4.557h-85.0555c-4.431,0-8.2288-1.5184-11.3916-4.557-3.1645-3.2888-4.7451-7.1486-4.7451-11.5814,0-4.4276,1.5806-8.2253,4.7451-11.3899Z"/>
      <g>
        <path class="cls-2" d="M78.2805,120.1869v-43.5438h-28.2805v-13.0683h74.0197v13.0683h-28.3316v43.5438h-17.4076Z"/>
        <path class="cls-2" d="M145.7665,120.1869c-4.8329,0-8.9337-1.7013-12.3028-5.1048-3.4035-3.4026-5.1048-7.5043-5.1048-12.3028v-21.7974c0-4.7986,1.7013-8.8989,5.1048-12.3024s7.5043-5.1048,12.3028-5.1048h41.3999c4.7981,0,8.8989,1.7022,12.3024,5.1048,3.4026,3.4035,5.1048,7.5038,5.1048,12.3024v21.7974c0,4.8329-1.7022,8.9337-5.1048,12.3028-3.4035,3.4035-7.5043,5.1048-12.3024,5.1048h-41.3999ZM178.4369,107.1186c2.3819,0,4.4413-.8332,6.1769-2.5011,1.7013-1.7356,2.5526-3.7946,2.5526-6.1769v-13.0683c0-2.4162-.8513-4.4747-2.5526-6.1769-1.7356-1.7013-3.795-2.5521-6.1769-2.5521h-23.9413c-2.4167,0-4.4757.8509-6.1769,2.5521-1.7022,1.7022-2.5521,3.7607-2.5521,6.1769v13.0683c0,2.3823.8499,4.4413,2.5521,6.1769,1.7013,1.6679,3.7603,2.5011,6.1769,2.5011h23.9413Z"/>
        <path class="cls-2" d="M213.3026,120.1869v-56.6121h63.1463c2.3819,0,4.4413.8509,6.1769,2.5521,1.7013,1.7022,2.5521,3.7607,2.5521,6.1769v17.4076c0,2.4167-.8509,4.4752-2.5521,6.1765-1.7356,1.7022-3.795,2.5526-6.1769,2.5526h-45.7387v21.7464h-17.4076ZM263.3806,85.3722c1.1909,0,2.2121-.425,3.0629-1.2763.8504-.8504,1.2763-1.8887,1.2763-3.114,0-1.1909-.4259-2.2116-1.2763-3.0629-.8509-.8499-1.872-1.2758-3.0629-1.2758h-32.6704v8.7291h32.6704Z"/>
      </g>
    </g>
  </g>
</svg>